<svg width="589" height="857" viewBox="0 0 589 857" fill="none" xmlns="http://www.w3.org/2000/svg">
<path d="M68.856 506.726L68.854 506.727C68.8567 506.725 68.859 506.723 68.8608 506.722C68.8592 506.723 68.8576 506.724 68.856 506.726Z" fill="black"/>
<path d="M520.873 475.794C520.876 475.795 520.879 475.796 520.882 475.797C520.878 475.796 520.875 475.795 520.871 475.794C520.868 475.793 520.865 475.792 520.862 475.791L520.873 475.794Z" fill="black"/>
<path d="M93.8345 454.312L93.8335 454.314C93.8335 454.314 93.8335 454.311 93.8345 454.309V454.312Z" fill="black"/>
<path d="M419.712 535.088H419.708C419.706 535.088 419.702 535.087 419.702 535.087C419.704 535.087 419.708 535.087 419.712 535.088Z" fill="black"/>
<path fill-rule="evenodd" clip-rule="evenodd" d="M481.849 449.407L484.57 450.439L484.572 450.44C484.615 450.457 484.662 450.476 484.709 450.497L484.718 450.5C484.718 450.5 484.719 450.501 484.721 450.502L484.752 450.516C484.935 450.602 485.102 450.708 485.254 450.831L485.301 450.87L485.302 450.871C485.368 450.927 485.425 450.982 485.474 451.032L485.515 451.075L485.516 451.076C485.567 451.131 485.613 451.187 485.655 451.241C485.657 451.244 485.659 451.246 485.662 451.249C485.675 451.264 485.69 451.284 485.707 451.307L487.523 453.808L487.631 453.971C487.708 454.095 487.772 454.225 487.825 454.357L487.86 454.454L487.862 454.458L487.868 454.476C487.869 454.48 487.872 454.486 487.874 454.491L487.877 454.504L487.878 454.505C487.905 454.587 487.93 454.676 487.95 454.771L487.989 455.019C487.998 455.104 488.002 455.191 488.002 455.279V465.463L488 465.498C488 465.52 488 465.537 488 465.546L487.999 465.55C487.997 465.593 487.994 465.658 487.987 465.729C487.984 465.759 487.98 465.785 487.978 465.797C487.978 465.8 487.977 465.803 487.977 465.805C487.977 465.807 487.976 465.81 487.976 465.81C487.971 465.846 487.961 465.912 487.946 465.984C487.939 466.014 487.933 466.039 487.93 466.051C487.929 466.054 487.928 466.059 487.928 466.059C487.928 466.061 487.927 466.063 487.927 466.063C487.914 466.115 487.898 466.17 487.879 466.229C487.879 466.229 487.879 466.233 487.878 466.235L487.877 466.234L487.867 466.271C487.84 466.348 487.812 466.416 487.79 466.468C487.772 466.507 487.754 466.544 487.748 466.557C487.742 466.569 487.714 466.626 487.683 466.682C487.666 466.713 487.649 466.74 487.64 466.754C487.636 466.76 487.631 466.768 487.629 466.771L487.626 466.775L487.541 466.907C487.525 466.929 487.505 466.957 487.482 466.986C487.441 467.039 487.402 467.085 487.375 467.116C487.367 467.125 487.359 467.136 487.35 467.146L487.335 467.161C487.334 467.163 487.332 467.165 487.33 467.168L487.265 467.236L485.442 469.049C485.409 469.082 485.373 469.111 485.337 469.138C484.953 469.481 484.465 469.709 483.931 469.764L483.679 469.776H482.722C482.715 469.776 482.708 469.776 482.702 469.775H479.381L475.636 469.909L473.24 470.1C473.235 470.1 473.231 470.099 473.226 470.1L472.982 470.119H472.98L472.723 470.125L472.544 470.12C472.542 470.12 472.539 470.12 472.537 470.12L469.385 470.023V475.727H520.304C520.316 475.727 520.328 475.727 520.339 475.728L520.45 475.731L520.489 475.733C520.498 475.734 520.505 475.735 520.512 475.735L520.538 475.737L520.559 475.739C520.646 475.748 520.727 475.761 520.801 475.776L520.803 475.777C520.809 475.779 520.814 475.78 520.82 475.781C520.837 475.785 520.853 475.79 520.871 475.794C520.882 475.797 520.893 475.8 520.902 475.803C520.912 475.806 520.921 475.809 520.926 475.811C520.931 475.812 520.936 475.813 520.936 475.813L520.91 475.805C520.902 475.802 520.893 475.8 520.882 475.797C520.908 475.803 520.934 475.809 520.959 475.815L521.094 475.855L521.095 475.856C521.111 475.862 521.125 475.866 521.135 475.87C521.304 475.93 521.465 476.008 521.617 476.102C521.624 476.106 521.633 476.111 521.643 476.116L521.693 476.147L526.649 479.457C527.343 479.921 527.76 480.702 527.76 481.536V490.993C527.76 491.03 527.758 491.061 527.756 491.083C527.755 491.104 527.753 491.121 527.752 491.127C527.751 491.165 527.748 491.208 527.744 491.253C527.739 491.295 527.735 491.335 527.73 491.366L527.699 491.535C527.689 491.578 527.679 491.618 527.669 491.652C527.653 491.712 527.635 491.768 527.618 491.818C527.615 491.825 527.608 491.84 527.601 491.859L527.6 491.865C527.598 491.872 527.594 491.88 527.59 491.889C527.59 491.891 527.59 491.893 527.589 491.896C527.583 491.913 527.577 491.932 527.569 491.953C527.55 492 527.53 492.039 527.517 492.064C527.511 492.077 527.504 492.089 527.5 492.097C527.496 492.106 527.494 492.111 527.492 492.115C527.487 492.126 527.474 492.152 527.458 492.181C527.365 492.354 527.253 492.512 527.128 492.652L527.127 492.651L527.068 492.716L526.938 492.844C526.898 492.88 526.861 492.911 526.84 492.928C526.809 492.953 526.777 492.975 526.748 492.997C526.742 493.002 526.734 493.01 526.725 493.018C526.708 493.031 526.681 493.051 526.649 493.072L521.693 496.384C521.611 496.438 521.522 496.48 521.428 496.509L520.595 496.762C520.501 496.79 520.403 496.805 520.304 496.805H439.367L440.134 498.376C440.178 498.466 440.216 498.558 440.249 498.651L467.708 498.782L467.868 498.789C467.87 498.789 467.874 498.79 467.876 498.79C467.883 498.79 467.89 498.791 467.896 498.791C467.975 498.797 468.045 498.809 468.086 498.815H468.089C468.089 498.815 468.094 498.816 468.097 498.816C468.103 498.817 468.115 498.819 468.127 498.821L468.31 498.859C468.322 498.862 468.333 498.865 468.339 498.867C468.343 498.868 468.346 498.87 468.348 498.87C468.35 498.871 468.352 498.871 468.352 498.871C468.416 498.888 468.477 498.907 468.534 498.928C468.548 498.933 468.559 498.937 468.567 498.94C468.575 498.944 468.582 498.946 468.584 498.947C468.589 498.949 468.585 498.948 468.585 498.948L468.571 498.942C468.618 498.96 468.675 498.983 468.736 499.011L468.789 499.035L468.79 499.036C468.841 499.061 468.891 499.088 468.941 499.116L469.003 499.153L469.005 499.155C469.018 499.163 469.069 499.195 469.12 499.229L469.234 499.314C469.238 499.318 469.247 499.324 469.256 499.331C469.266 499.339 469.28 499.349 469.294 499.361L469.313 499.376L469.324 499.386C469.359 499.416 469.387 499.443 469.404 499.459L469.438 499.493C469.443 499.498 469.448 499.503 469.455 499.509C469.465 499.518 469.477 499.53 469.49 499.543C469.522 499.576 469.552 499.612 469.58 499.649L471.655 502.491L503.962 502.521C504.076 502.521 504.182 502.529 504.278 502.541C504.305 502.544 504.366 502.552 504.431 502.564C504.466 502.571 504.495 502.578 504.51 502.582C504.516 502.583 504.525 502.585 504.527 502.586C504.53 502.587 504.529 502.587 504.529 502.587L504.661 502.621C504.668 502.623 504.709 502.635 504.748 502.647C504.807 502.667 504.863 502.689 504.877 502.695L504.881 502.697C504.883 502.698 504.89 502.7 504.895 502.702C504.907 502.707 504.929 502.716 504.955 502.727C504.957 502.728 504.967 502.731 504.978 502.736L513.277 506.429C513.293 506.436 513.309 506.444 513.325 506.452L513.42 506.501L513.437 506.51C513.532 506.561 513.632 506.621 513.732 506.693C513.752 506.708 513.768 506.721 513.774 506.726L513.777 506.728L513.778 506.729C513.844 506.779 513.903 506.83 513.955 506.878C513.944 506.868 513.936 506.861 513.932 506.857L513.957 506.878C513.97 506.889 513.988 506.906 514.009 506.927L514.01 506.928L515.642 508.526L515.673 508.559L515.767 508.659L515.798 508.693C515.944 508.864 516.069 509.059 516.167 509.271L519.907 517.441L519.927 517.488L519.986 517.636L520.004 517.688C520.088 517.938 520.133 518.202 520.134 518.47L520.198 531.401C520.198 531.53 520.174 531.658 520.126 531.777L519.708 532.824C519.661 532.944 519.59 533.053 519.501 533.146L518.345 534.35C518.252 534.447 518.14 534.524 518.016 534.577L516.935 535.038C516.811 535.091 516.677 535.118 516.542 535.118H493.005C492.409 535.118 491.836 534.905 491.386 534.522L491.201 534.349L490.046 533.145C489.956 533.051 489.885 532.939 489.837 532.818L489.419 531.757C489.373 531.639 489.349 531.512 489.35 531.385L489.411 520.32L488.051 516.513L487.382 515.766L484.542 514.565L480.911 514.568L482.839 520.929C482.844 520.931 482.848 520.932 482.852 520.935L482.868 520.942C482.878 520.948 482.887 520.952 482.894 520.956C482.9 520.959 482.905 520.962 482.909 520.964L482.915 520.967C482.918 520.968 482.927 520.974 482.935 520.978L483.019 521.021C483.045 521.036 483.067 521.051 483.078 521.058C483.082 521.06 483.09 521.065 483.09 521.065C483.093 521.067 483.092 521.067 483.092 521.067C483.158 521.108 483.217 521.149 483.27 521.188C483.291 521.204 483.262 521.183 483.296 521.208L483.364 521.261C483.416 521.304 483.47 521.352 483.523 521.404L484.572 522.434L484.603 522.467L484.705 522.576C484.717 522.589 484.729 522.603 484.741 522.616C485.112 523.061 485.317 523.625 485.32 524.208L485.362 535.188L493.083 538.256L493.211 538.307C494.169 538.682 494.797 539.606 494.797 540.634V618.332H533.089C533.419 618.332 533.743 618.398 534.044 618.522L539.33 620.708H582.636C582.648 620.708 582.659 620.709 582.67 620.709L582.784 620.713L582.826 620.715C583.265 620.748 583.688 620.897 584.052 621.147L586.97 623.153C587.648 623.62 588.054 624.391 588.054 625.214V852.441L588.049 852.596C588.002 853.36 587.605 854.064 586.97 854.501L584.798 855.994C584.433 856.245 584.009 856.394 583.571 856.427L583.382 856.434H5.61768C5.60335 856.434 5.58902 856.433 5.57471 856.433L5.46143 856.428C5.449 856.427 5.4367 856.424 5.42432 856.423V856.425C5.36635 856.42 5.31513 856.414 5.27979 856.409L5.27393 856.408C5.26668 856.407 5.24969 856.405 5.22998 856.402C5.1989 856.397 5.14853 856.389 5.09326 856.377C5.08429 856.375 5.05986 856.37 5.03467 856.364C4.98411 856.352 4.93597 856.339 4.89111 856.325C4.87918 856.322 4.86889 856.318 4.86182 856.315C4.85922 856.315 4.85703 856.313 4.85498 856.312C4.74794 856.278 4.64414 856.238 4.54443 856.19C4.50666 856.172 4.47223 856.154 4.44287 856.139L4.44385 856.14C4.44385 856.14 4.44077 856.138 4.43799 856.137L4.43896 856.136L4.43604 856.135C4.42728 856.13 4.40343 856.119 4.37646 856.104C4.33426 856.079 4.29516 856.055 4.26025 856.032L4.25732 856.03C4.25732 856.03 4.25063 856.026 4.24658 856.023C4.23741 856.018 4.22058 856.006 4.20068 855.992L2.02979 854.501C1.39448 854.064 0.998081 853.36 0.950684 852.596L0.945801 852.441V625.214C0.945908 624.391 1.35159 623.62 2.02979 623.153L4.94775 621.147L4.97998 621.127L5.07568 621.066L5.10693 621.047C5.48777 620.825 5.92186 620.708 6.36377 620.708H49.6694L54.9546 618.522L54.9985 618.505L55.1372 618.455L55.1851 618.439C55.4189 618.369 55.6636 618.332 55.9097 618.332H87.8296L87.8306 540.634C87.8307 539.61 88.4557 538.688 89.4077 538.31L97.2632 535.188L97.3091 524.208L97.3101 524.162L97.314 524.084C97.3141 524.077 97.3144 524.065 97.3149 524.053C97.3156 524.037 97.3166 524.015 97.3188 523.99L97.3208 523.977L97.3218 523.959C97.3264 523.915 97.3333 523.871 97.3403 523.826V523.824L97.3423 523.814V523.81C97.3437 523.8 97.3465 523.783 97.3501 523.764L97.3892 523.59C97.4338 523.418 97.4961 523.252 97.5757 523.094L97.6069 523.035L97.6919 522.89L97.6929 522.889L97.6938 522.886C97.6962 522.882 97.7026 522.872 97.7095 522.861C97.7168 522.85 97.7236 522.84 97.728 522.834L97.7368 522.821L97.8325 522.688L97.8335 522.686L97.8364 522.682C97.841 522.676 97.8533 522.66 97.8677 522.643L97.9624 522.533C97.9941 522.499 98.0255 522.465 98.0571 522.434L99.1001 521.409C99.1357 521.374 99.1737 521.339 99.2134 521.305L99.2153 521.303L99.2593 521.265C99.2681 521.257 99.2775 521.25 99.2866 521.242C99.348 521.193 99.4121 521.146 99.4771 521.104L99.6763 520.984L99.729 520.958C99.7449 520.95 99.7634 520.941 99.7837 520.932L101.714 514.568L98.0815 514.565L95.2437 515.765L94.5737 516.513L93.2153 520.32L93.2778 531.399C93.2814 532.05 93.0309 532.676 92.5815 533.145L91.4263 534.349C91.333 534.446 91.221 534.523 91.0972 534.576L90.0161 535.037L90.0151 535.036C89.892 535.089 89.759 535.118 89.6226 535.118H66.0854C65.4053 535.118 64.7544 534.84 64.2837 534.351L64.2827 534.35L63.1265 533.146C63.0373 533.053 62.9671 532.943 62.9194 532.823L62.5015 531.775C62.4539 531.656 62.4295 531.529 62.4302 531.4L62.4956 518.469L62.5015 518.363C62.5053 518.329 62.5116 518.294 62.519 518.26L62.6538 517.645L62.6821 517.541C62.6933 517.508 62.7065 517.475 62.7212 517.442L66.4478 509.302L66.4526 509.29C66.4552 509.284 66.4602 509.273 66.4663 509.26L66.564 509.072C66.5978 509.014 66.6326 508.959 66.6675 508.907L66.6694 508.905C66.6694 508.905 66.6719 508.902 66.6733 508.899C66.6789 508.891 66.691 508.873 66.7056 508.853L66.8022 508.728C66.7911 508.741 66.7823 508.752 66.7778 508.758C66.7815 508.753 66.7876 508.744 66.7944 508.735C66.8046 508.722 66.8203 508.703 66.8394 508.681L66.938 508.574L66.939 508.573C66.939 508.573 66.9439 508.567 66.9468 508.564C66.9539 508.557 66.9688 508.542 66.9858 508.525L68.6177 506.928L68.6489 506.898L68.687 506.864C68.6892 506.862 68.6933 506.858 68.7017 506.851C68.7154 506.838 68.7395 506.816 68.769 506.791L68.8091 506.76L68.8228 506.749C68.8331 506.741 68.8449 506.734 68.856 506.726L68.8589 506.724L68.8608 506.722C68.9064 506.687 68.9572 506.649 69.0142 506.612L69.0151 506.611L69.0181 506.609C69.0201 506.608 69.0228 506.606 69.0249 506.604C69.0282 506.602 69.0333 506.599 69.0376 506.597C69.0464 506.591 69.0578 506.583 69.0718 506.574C69.1674 506.516 69.2675 506.465 69.3706 506.42L77.6509 502.736L77.686 502.722C77.7979 502.674 77.9057 502.639 78.0034 502.612C78.0487 502.6 77.9757 502.619 78.0366 502.603C78.0548 502.598 78.0849 502.59 78.1196 502.582L78.2271 502.561L78.3296 502.544C78.3442 502.542 78.3271 502.545 78.3599 502.54C78.3773 502.538 78.4069 502.533 78.4419 502.53L78.5757 502.523H78.5776C78.5776 502.523 78.5875 502.523 78.5933 502.522C78.6068 502.522 78.6334 502.521 78.6646 502.521L110.987 502.49C111.258 502.117 111.505 501.726 111.79 501.293C112.158 500.732 112.578 500.12 113.138 499.542C113.547 499.12 114.09 498.857 114.67 498.796L114.717 498.792L114.868 498.783L114.921 498.781L142.382 498.651C142.413 498.56 142.449 498.468 142.494 498.376L143.26 496.806H62.3237C62.2421 496.806 62.1691 496.8 62.1245 496.797C62.0807 496.793 62.0329 496.787 62.0083 496.783H62.0054C62.0013 496.783 61.9918 496.782 61.981 496.78C61.9697 496.779 61.954 496.777 61.936 496.774C61.8959 496.768 61.854 496.76 61.811 496.751C61.7632 496.741 61.7172 496.729 61.7026 496.726C61.6758 496.719 61.6483 496.711 61.6206 496.703L61.6196 496.702C61.5773 496.69 61.5399 496.678 61.5142 496.669L61.3491 496.605C61.3418 496.602 61.292 496.582 61.2456 496.56L61.2446 496.559C61.2032 496.539 61.1567 496.514 61.1567 496.514L61.1538 496.512C61.1516 496.511 61.1448 496.508 61.1392 496.505C61.1268 496.498 61.1036 496.487 61.0776 496.472L60.9927 496.419C60.9904 496.418 60.9824 496.413 60.9741 496.408C60.965 496.403 60.9511 496.395 60.9351 496.384L55.979 493.073C55.285 492.609 54.8677 491.828 54.8677 490.993V481.536C54.8677 481.515 54.8683 481.494 54.8696 481.473L54.8813 481.287C54.8826 481.267 54.8847 481.247 54.8872 481.227C54.9766 480.512 55.371 479.863 55.979 479.457L60.9351 476.147C61.0166 476.093 61.1059 476.051 61.1997 476.022L62.0327 475.77C62.1269 475.741 62.2253 475.727 62.3237 475.727H112.403V469.82L109.336 470.016C109.334 470.016 109.331 470.015 109.328 470.016L108.569 470.062C108.564 470.062 108.559 470.064 108.554 470.064L108.15 470.089L108.151 470.09C108.054 470.096 107.957 470.097 107.86 470.092L101.845 469.775H97.9604C97.8296 469.775 97.6996 469.75 97.5786 469.7L96.521 469.264C96.4001 469.214 96.2905 469.14 96.1978 469.048L94.3765 467.235C94.3549 467.214 94.3377 467.194 94.3267 467.182L94.3247 467.179L94.3237 467.178C94.315 467.168 94.3074 467.16 94.3052 467.157L94.3032 467.155L94.2632 467.112L94.1831 467.018L94.063 466.854C94.0224 466.794 93.9893 466.738 93.9663 466.697L93.9526 466.673C93.9296 466.631 93.9099 466.593 93.8979 466.568C93.8907 466.554 93.8697 466.511 93.8501 466.466L93.8091 466.366L93.7749 466.271C93.7697 466.255 93.7513 466.203 93.7358 466.149C93.6953 466.007 93.6695 465.865 93.6548 465.728C93.6498 465.681 93.6469 465.634 93.646 465.62L93.6411 465.497V465.518C93.6405 465.505 93.6401 465.485 93.6401 465.463V455.276C93.6402 455.229 93.6423 455.186 93.6431 455.168L93.6528 455.023C93.6546 455.006 93.6578 454.974 93.6626 454.938C93.6714 454.874 93.6828 454.816 93.6919 454.772C93.6895 454.784 93.6877 454.793 93.687 454.797C93.6876 454.793 93.6897 454.783 93.6919 454.771C93.6942 454.758 93.6978 454.74 93.7026 454.719L93.7622 454.503L93.7632 454.502C93.7713 454.477 93.779 454.456 93.7837 454.443C93.7952 454.412 93.7844 454.44 93.7915 454.421C93.8082 454.375 93.8258 454.332 93.8433 454.291C93.848 454.279 93.8546 454.262 93.8638 454.242L93.8794 454.209L93.9116 454.145C93.9708 454.028 94.0391 453.915 94.1167 453.809L95.9146 451.332L95.9155 451.333C96.0156 451.192 96.1277 451.064 96.2485 450.951L96.2505 450.949C96.2546 450.945 96.2641 450.935 96.2759 450.925C96.3414 450.865 96.4115 450.808 96.4858 450.754C96.5077 450.738 96.5304 450.723 96.5347 450.72L96.7642 450.579L96.7983 450.562L96.7993 450.561C96.8022 450.559 96.8052 450.557 96.8081 450.556C96.811 450.554 96.8149 450.553 96.8149 450.553C96.9067 450.506 97.0031 450.464 97.1021 450.428L99.7944 449.406V131.413L93.6909 130.752L93.6851 130.751C93.6767 130.75 93.668 130.75 93.6597 130.749C93.5953 130.742 93.5208 130.732 93.4419 130.716C93.3093 130.689 93.1936 130.653 93.1079 130.623C93.1016 130.621 93.0501 130.603 93.0044 130.585C92.9654 130.569 92.9319 130.554 92.9116 130.545C92.8204 130.502 92.9488 130.562 92.8745 130.527C92.8701 130.525 92.8636 130.523 92.8579 130.521C92.8465 130.515 92.8314 130.508 92.814 130.499C92.7594 130.472 92.7102 130.445 92.6724 130.423L92.6704 130.422C92.6686 130.421 92.6637 130.417 92.6597 130.415C92.6505 130.41 92.6336 130.4 92.6147 130.389L92.6138 130.388C92.5773 130.365 92.5386 130.34 92.4995 130.312C92.4707 130.292 92.4445 130.273 92.4233 130.257L92.4214 130.256C92.384 130.228 92.3506 130.2 92.3228 130.177C92.2832 130.144 92.2483 130.112 92.23 130.095C92.2168 130.082 92.2354 130.1 92.2144 130.08L92.1978 130.063C92.1978 130.063 92.2002 130.066 92.1948 130.062C92.191 130.058 92.1818 130.05 92.1714 130.04L92.1284 129.997L89.9204 127.702C89.9065 127.688 89.8947 127.675 89.8862 127.665C89.8781 127.656 89.8713 127.648 89.8677 127.644L89.8716 127.647C89.8488 127.622 89.8227 127.593 89.7954 127.56C89.767 127.525 89.741 127.492 89.731 127.479C89.7052 127.445 89.6767 127.405 89.6479 127.362C89.6338 127.341 89.6196 127.32 89.606 127.298C89.4908 127.115 89.3976 126.915 89.3325 126.704L89.3149 126.642C89.2998 126.587 89.2861 126.531 89.2739 126.472C89.2758 126.48 89.277 126.488 89.2778 126.491V126.493C89.2772 126.491 89.276 126.483 89.2739 126.474L89.2651 126.432C89.2336 126.265 89.2199 126.098 89.2222 125.934V113.788L89.228 113.698C89.2282 113.695 89.2286 113.691 89.229 113.685C89.2293 113.678 89.2293 113.666 89.23 113.655C89.2313 113.633 89.2341 113.597 89.2388 113.557C89.243 113.521 89.2475 113.49 89.2505 113.473C89.2519 113.464 89.2538 113.455 89.2544 113.451C89.2548 113.449 89.2554 113.446 89.2554 113.446V113.444L89.2788 113.321C89.2907 113.266 89.3055 113.212 89.3091 113.198C89.3177 113.166 89.3334 113.11 89.354 113.049L89.3735 112.992C89.3932 112.938 89.4158 112.881 89.4419 112.823L89.4546 112.793L89.5054 112.691C89.5094 112.683 89.5138 112.675 89.5181 112.667C89.5295 112.646 89.5398 112.627 89.5435 112.621C89.5662 112.581 89.5885 112.544 89.6069 112.515L89.687 112.397L89.688 112.396L89.7056 112.37C89.7128 112.36 89.7229 112.346 89.7349 112.33L89.8569 112.183L89.8638 112.175C89.8681 112.17 89.8756 112.162 89.8843 112.152L89.9165 112.118C89.9204 112.114 89.9243 112.11 89.9272 112.107C89.9354 112.099 89.9465 112.087 89.9585 112.075L92.0229 110.021L92.0552 109.99L92.1646 109.891L92.2046 109.855C92.6495 109.492 93.2088 109.292 93.7866 109.292H97.9478L101.944 109.121C101.981 109.12 102.018 109.121 102.054 109.123C102.067 109.123 102.079 109.123 102.089 109.123C102.103 109.123 102.117 109.121 102.13 109.121L108.477 109.325L108.822 109.335L108.826 109.336L110.532 109.391V103.196H61.6743C61.5822 103.196 61.4998 103.189 61.438 103.184C61.4238 103.182 61.4114 103.181 61.4048 103.181C61.4017 103.18 61.397 103.18 61.397 103.18H61.395L61.394 103.179C61.3335 103.172 61.2689 103.162 61.2017 103.149H61.1978C61.187 103.148 61.1715 103.145 61.1538 103.142L61.1528 103.141L60.9399 103.086C60.916 103.079 60.896 103.071 60.8823 103.066C60.8692 103.062 60.8581 103.057 60.855 103.056L60.8599 103.057C60.8246 103.045 60.7801 103.03 60.7329 103.011L60.6675 102.983C60.6157 102.961 60.57 102.938 60.5356 102.92C60.5102 102.907 60.5491 102.928 60.5112 102.908C60.4984 102.902 60.4781 102.89 60.4546 102.877C60.4068 102.85 60.3477 102.816 60.2856 102.774L60.2681 102.763L55.98 99.8975C55.2867 99.4339 54.8687 98.6546 54.8687 97.8193V87.4951C54.869 86.6603 55.286 85.8796 55.98 85.416L60.2866 82.54L60.3716 82.4883C60.5627 82.3864 60.7826 82.35 60.9976 82.3838C61.1758 82.219 61.4144 82.1182 61.6763 82.1182H114.738L113.388 4.62695C113.382 4.2635 113.571 3.9417 113.858 3.76172C113.777 3.43304 113.864 3.07127 114.121 2.81445L115.889 1.0459C116.34 0.59487 116.967 0.313499 117.657 0.313477H131.896L131.946 0.314453L132.004 0.317383L132.003 0.318359C132.006 0.318386 132.011 0.317723 132.031 0.318359C132.053 0.319093 132.093 0.320617 132.14 0.325195C132.172 0.328321 132.204 0.33371 132.235 0.339844C132.27 0.344727 132.306 0.347301 132.34 0.353516L132.446 0.375977C132.498 0.387812 132.553 0.401408 132.609 0.417969C132.637 0.426286 132.662 0.435117 132.675 0.439453C132.729 0.45707 132.785 0.477328 132.84 0.5C132.874 0.513539 132.905 0.528071 132.915 0.532227C132.957 0.551142 132.998 0.570926 133.037 0.59082C133.061 0.603524 133.102 0.624076 133.146 0.649414C133.201 0.681384 133.251 0.715215 133.27 0.727539C133.302 0.748918 133.343 0.776102 133.387 0.808594C133.414 0.828694 133.471 0.871125 133.53 0.921875L133.533 0.923828L133.551 0.94043C133.566 0.953154 133.578 0.964454 133.586 0.972656C133.595 0.98046 133.602 0.987265 133.605 0.990234L133.611 0.996094C133.622 1.0064 133.642 1.02412 133.664 1.0459L135.432 2.81445L135.499 2.8877C135.561 2.96331 135.611 3.04804 135.649 3.13867L136.088 4.2002C136.139 4.32136 136.165 4.45188 136.165 4.58301V17.6377H450.822V4.58301C450.822 3.8936 451.102 3.26618 451.554 2.81445L453.323 1.0459L453.5 0.884766C453.931 0.528551 454.487 0.313664 455.09 0.313477H469.33L469.379 0.314453L469.438 0.317383L469.437 0.318359C469.439 0.318382 469.444 0.317711 469.464 0.318359L469.574 0.325195L469.665 0.337891L469.668 0.339844C469.704 0.344734 469.74 0.347354 469.774 0.353516C469.822 0.362171 469.875 0.374959 469.879 0.375977C469.932 0.387928 469.987 0.401565 470.042 0.417969C470.063 0.424202 470.081 0.430241 470.091 0.433594C470.096 0.435148 470.102 0.436801 470.104 0.4375L470.107 0.438477C470.158 0.455141 470.212 0.475439 470.268 0.498047C470.268 0.498047 470.272 0.499238 470.277 0.500977C470.281 0.502477 470.287 0.505208 470.293 0.507812L470.351 0.532227L470.487 0.598633C470.504 0.607544 470.481 0.595968 470.51 0.611328L470.573 0.644531L470.705 0.727539C470.746 0.754991 470.787 0.783618 470.826 0.8125C470.867 0.843004 470.914 0.879775 470.962 0.921875C470.945 0.907283 470.931 0.895726 470.923 0.889648C470.92 0.886729 470.915 0.882812 470.915 0.882812L470.914 0.881836C470.914 0.881836 470.917 0.884357 470.92 0.886719C470.924 0.889266 470.928 0.893898 470.934 0.898438L470.985 0.939453C470.999 0.952253 471.012 0.96455 471.02 0.972656C471.028 0.980397 471.036 0.987288 471.039 0.990234L471.044 0.996094L471.097 1.0459L472.866 2.81445L472.932 2.88672C473.077 3.06314 473.157 3.28544 473.159 3.51562L473.593 82.1182H520.954C520.965 82.1182 520.977 82.1187 520.989 82.1191L521.099 82.123L521.138 82.125C521.146 82.1256 521.152 82.1264 521.159 82.127L521.184 82.1289L521.208 82.1309C521.398 82.1502 521.576 82.1911 521.742 82.2461L521.743 82.2471C521.767 82.2553 521.788 82.2622 521.794 82.2646L521.798 82.2666L521.963 82.3359L521.961 82.335C521.961 82.335 521.966 82.3363 521.97 82.3379C521.975 82.3397 521.982 82.3424 521.991 82.3457L522.063 82.3789L522.066 82.3799L522.083 82.3887L522.092 82.3936C522.174 82.4353 522.248 82.4795 522.314 82.5225C522.297 82.5115 522.283 82.5028 522.275 82.498C522.278 82.4999 522.282 82.5023 522.287 82.5049L522.342 82.5391L526.649 85.417C527.343 85.8805 527.76 86.6603 527.76 87.4951V97.833C527.76 97.9288 527.753 98.0173 527.745 98.0908C527.739 98.1381 527.732 98.1783 527.728 98.2012C527.726 98.2118 527.724 98.2234 527.723 98.2285C527.723 98.2313 527.722 98.2354 527.722 98.2354V98.2383C527.718 98.2623 527.708 98.3208 527.694 98.3828L527.657 98.5186C527.647 98.5518 527.633 98.5968 527.616 98.6465C527.606 98.6729 527.594 98.7041 527.581 98.7373L527.571 98.7666C527.565 98.7838 527.555 98.8098 527.542 98.8398C527.525 98.8762 527.508 98.9063 527.5 98.9199L527.501 98.9209L527.445 99.0293L527.339 99.2021C527.339 99.2021 527.339 99.2033 527.337 99.2051C527.337 99.2051 527.333 99.2131 527.33 99.2178C527.323 99.2283 527.308 99.2471 527.292 99.2695L527.293 99.2705C527.186 99.4209 527.059 99.5643 526.912 99.6943C526.877 99.7245 526.846 99.7484 526.836 99.7559C526.834 99.7575 526.83 99.7607 526.83 99.7607L526.829 99.7617L526.754 99.8174L526.732 99.8359L526.649 99.8975L522.342 102.774C522.124 102.92 521.87 102.968 521.629 102.93C521.451 103.094 521.214 103.196 520.953 103.196H475.542V108.974L476.846 108.935C476.908 108.933 476.979 108.933 477.055 108.937L483.71 109.292H487.854C487.985 109.292 488.115 109.317 488.236 109.367L489.293 109.804L489.381 109.846C489.468 109.892 489.547 109.95 489.617 110.02L491.684 112.074L491.721 112.112C491.73 112.121 491.736 112.129 491.739 112.132L491.814 112.216C491.842 112.249 491.867 112.28 491.879 112.295C491.899 112.32 491.929 112.358 491.959 112.401L491.963 112.407L492.005 112.467L492.123 112.664C492.158 112.73 492.189 112.796 492.217 112.861C492.233 112.898 492.246 112.933 492.253 112.951L492.289 113.049L492.327 113.168L492.345 113.243C492.364 113.324 492.338 113.21 492.353 113.275L492.354 113.279C492.355 113.282 492.356 113.29 492.358 113.297L492.375 113.373L492.407 113.592L492.414 113.721C492.414 113.721 492.414 113.724 492.415 113.727L492.416 113.731C492.416 113.737 492.417 113.746 492.417 113.756C492.419 113.775 492.421 113.808 492.421 113.847V125.969L492.418 126.03C492.418 126.054 492.417 126.073 492.417 126.084C492.416 126.087 492.416 126.091 492.416 126.093C492.415 126.095 492.416 126.099 492.416 126.099C492.413 126.139 492.41 126.189 492.404 126.244C492.399 126.291 492.392 126.334 492.387 126.361C492.381 126.397 492.374 126.444 492.363 126.494C492.356 126.527 492.347 126.563 492.338 126.598C492.325 126.647 492.311 126.697 492.294 126.746C492.284 126.776 492.271 126.81 492.268 126.818L492.269 126.819C492.251 126.869 492.228 126.927 492.2 126.99C492.2 126.99 492.198 126.994 492.197 126.997C492.196 127 492.194 127.004 492.192 127.008C492.188 127.016 492.182 127.03 492.175 127.045L492.174 127.044L492.084 127.217C492.075 127.233 492.064 127.252 492.053 127.27L492.052 127.269C492.027 127.309 491.994 127.365 491.953 127.423L491.952 127.424C491.935 127.447 491.92 127.467 491.91 127.48L491.909 127.479C491.869 127.532 491.805 127.617 491.722 127.703L489.512 129.998C489.427 130.086 489.339 130.157 489.299 130.19C489.282 130.205 489.26 130.223 489.235 130.242L489.234 130.243C489.084 130.358 488.918 130.458 488.739 130.539L488.74 130.54C488.71 130.554 488.682 130.565 488.66 130.574L488.659 130.575C488.619 130.591 488.577 130.607 488.532 130.623L488.389 130.669C488.379 130.672 488.369 130.673 488.361 130.675C488.356 130.676 488.35 130.678 488.346 130.679C488.26 130.701 488.174 130.719 488.089 130.732C488.087 130.733 488.084 130.733 488.081 130.733C488.077 130.734 488.072 130.735 488.068 130.736C488.048 130.74 488.018 130.745 487.981 130.749L481.849 131.413V449.407ZM118.141 195.393L122.597 182.842L122.596 182.838H122.609L122.62 182.808L118.141 170.286V195.393ZM165.892 531.402C165.894 531.918 165.737 532.423 165.441 532.847L165.44 532.846L164.601 534.048C164.524 534.158 164.439 534.262 164.346 534.357L164.333 534.37C164.242 534.461 164.135 534.534 164.016 534.584L162.94 535.039C162.817 535.091 162.684 535.118 162.55 535.118H141.987V535.171L150.09 538.302C151.053 538.674 151.69 539.601 151.69 540.634V618.332H179.125V540.636C179.126 539.598 179.767 538.668 180.737 538.299L181.232 538.11C181.237 538.108 181.242 538.106 181.248 538.104L188.986 535.163L189.002 526.499H165.87L165.892 531.402ZM273.634 531.407C273.634 531.438 273.633 531.466 273.632 531.484C273.631 531.502 273.63 531.517 273.629 531.522L273.626 531.595C273.624 531.628 273.622 531.657 273.62 531.673C273.619 531.68 273.617 531.688 273.617 531.691C273.616 531.694 273.617 531.696 273.617 531.696L273.616 531.697C273.613 531.721 273.61 531.752 273.605 531.785C273.583 531.934 273.547 532.082 273.498 532.225C273.49 532.247 273.479 532.276 273.467 532.307C273.45 532.351 273.434 532.389 273.424 532.412L273.423 532.413C273.423 532.413 273.42 532.421 273.418 532.426C273.414 532.437 273.404 532.461 273.391 532.487L273.39 532.486C273.368 532.533 273.346 532.575 273.333 532.601C273.319 532.625 273.308 532.646 273.301 532.656C273.299 532.661 273.293 532.669 273.293 532.669L273.292 532.671C273.217 532.801 273.129 532.923 273.031 533.038V533.04C273.028 533.043 273.022 533.049 273.016 533.057C273.01 533.064 273.003 533.074 272.994 533.084C272.99 533.088 272.987 533.092 272.983 533.097C272.972 533.109 272.957 533.126 272.939 533.145L271.785 534.349C271.601 534.54 271.349 534.651 271.083 534.656C271 534.658 270.918 534.647 270.837 534.629C270.663 534.921 270.345 535.118 269.98 535.118H209.516L209.515 535.162L217.763 538.299C218.647 538.635 219.258 539.437 219.36 540.361L219.371 540.492C219.373 540.538 219.375 540.587 219.375 540.637V618.332H271.09V540.637L271.098 540.443C271.173 539.482 271.796 538.642 272.708 538.298L281.003 535.161V526.499H273.623L273.634 531.407ZM301.625 535.161L309.92 538.298C310.893 538.665 311.537 539.597 311.537 540.637V618.332H363.252V540.601C363.253 540.559 363.256 540.523 363.257 540.508V540.494C363.258 540.481 363.259 540.453 363.262 540.42L363.272 540.337C363.273 540.331 363.274 540.319 363.274 540.319L363.291 540.203L363.292 540.202C363.297 540.17 363.303 540.137 363.31 540.104L363.331 540.021V540.017C363.331 540.015 363.333 540.009 363.334 540.004C363.337 539.993 363.342 539.973 363.348 539.95L363.352 539.938L363.364 539.898L363.368 539.885L363.407 539.773L363.408 539.771C363.409 539.767 363.412 539.761 363.415 539.753C363.417 539.745 363.421 539.733 363.426 539.721L363.486 539.583C363.549 539.448 363.623 539.32 363.707 539.201C363.712 539.193 363.74 539.153 363.768 539.116C363.792 539.085 363.819 539.051 363.823 539.047C363.848 539.016 363.876 538.984 363.906 538.951C363.918 538.938 363.934 538.921 363.952 538.902L364.032 538.823C364.076 538.781 364.12 538.743 364.138 538.728C364.145 538.721 364.16 538.71 364.175 538.697C364.221 538.66 364.265 538.627 364.302 538.601C364.307 538.597 364.301 538.601 364.314 538.592C364.322 538.586 364.337 538.577 364.353 538.565L364.415 538.525C364.417 538.524 364.421 538.522 364.422 538.521L364.425 538.519C364.539 538.447 364.666 538.38 364.806 538.322L364.809 538.321L364.814 538.319C364.822 538.316 364.84 538.308 364.862 538.3L365.371 538.105L365.374 538.104L373.111 535.163L373.112 535.118H312.648C312.631 535.118 312.614 535.118 312.597 535.117L312.445 535.109C312.428 535.109 312.411 535.107 312.394 535.105C311.807 535.045 311.256 534.779 310.843 534.349L309.689 533.145C309.6 533.052 309.53 532.942 309.482 532.823L309.065 531.781C309.018 531.663 308.993 531.536 308.994 531.408L309.005 526.499H301.625V535.161ZM393.641 535.163L401.891 538.299L402.069 538.374C402.938 538.784 403.502 539.663 403.502 540.636V618.332H430.938V540.572C430.939 540.538 430.941 540.509 430.942 540.498C430.942 540.495 430.943 540.49 430.943 540.49V540.496C430.944 540.476 430.942 540.502 430.944 540.466C430.945 540.449 430.946 540.42 430.95 540.388C430.953 540.357 430.957 540.325 430.958 540.319C430.963 540.273 430.97 540.232 430.975 540.204L430.976 540.198C430.976 540.196 430.977 540.193 430.978 540.189C430.979 540.182 430.981 540.171 430.984 540.158L430.988 540.139L431 540.084L431.003 540.067C431.008 540.048 431.012 540.031 431.014 540.022C431.015 540.019 431.017 540.012 431.017 540.012V540.01C431.017 540.01 431.019 540.005 431.02 540.001C431.021 539.997 431.022 539.991 431.024 539.984C431.027 539.971 431.033 539.949 431.041 539.924C431.053 539.882 431.068 539.84 431.076 539.818C431.077 539.813 431.079 539.806 431.082 539.799C431.086 539.785 431.093 539.766 431.101 539.744L431.169 539.583C431.193 539.532 431.217 539.484 431.242 539.439C431.283 539.363 431.331 539.284 431.387 539.204C431.5 539.042 431.632 538.893 431.781 538.761C431.792 538.751 431.806 538.739 431.806 538.739C431.857 538.696 431.904 538.659 431.94 538.632L431.942 538.631L431.973 538.607L432.103 538.52C432.237 538.435 432.381 538.361 432.535 538.302L440.638 535.171L440.639 535.118H420.078C420.063 535.118 420.048 535.118 420.033 535.117L419.903 535.111C419.889 535.111 419.875 535.11 419.862 535.108C419.851 535.107 419.84 535.105 419.831 535.104V535.102C419.821 535.101 419.812 535.101 419.802 535.1V535.103C419.788 535.101 419.774 535.097 419.762 535.096C419.76 535.095 419.757 535.096 419.754 535.096L419.749 535.095C419.733 535.092 419.72 535.089 419.712 535.088C419.677 535.083 419.631 535.076 419.58 535.065H419.576C419.576 535.065 419.569 535.064 419.565 535.063C419.556 535.062 419.542 535.058 419.524 535.054L419.525 535.055L419.521 535.054C419.521 535.054 419.517 535.052 419.514 535.052C419.504 535.05 419.483 535.045 419.458 535.039C419.411 535.027 419.368 535.014 419.34 535.005L419.335 535.004C419.335 535.004 419.332 535.003 419.33 535.002C419.32 534.999 419.299 534.993 419.276 534.985C419.267 534.982 419.278 534.986 419.259 534.979C419.25 534.976 419.233 534.971 419.214 534.964C419.193 534.956 419.175 534.948 419.162 534.942C419.157 534.94 419.153 534.938 419.149 534.937C419.093 534.914 419.026 534.886 418.956 534.851L418.902 534.822C418.874 534.808 418.85 534.794 418.832 534.783L418.792 534.761C418.743 534.731 418.688 534.695 418.63 534.654C418.602 534.634 418.577 534.616 418.567 534.608L418.566 534.607C418.523 534.575 418.484 534.541 418.47 534.529L418.468 534.528C418.468 534.528 418.464 534.525 418.462 534.523L418.419 534.487L418.411 534.479L418.407 534.476C418.401 534.471 418.393 534.464 418.384 534.456C418.334 534.409 418.288 534.363 418.248 534.319C418.224 534.294 418.206 534.272 418.195 534.26C418.176 534.237 418.185 534.248 418.177 534.239L418.052 534.082C418.062 534.096 418.071 534.107 418.077 534.114C418.074 534.111 418.071 534.107 418.068 534.104L418.029 534.051L417.489 533.278L417.487 533.275L417.186 532.844C416.891 532.422 416.734 531.919 416.736 531.402L416.758 526.499H393.625L393.641 535.163ZM117.107 535.187L119.361 536.083L121.722 535.171L121.723 535.118H117.107V535.187ZM460.904 535.171L463.265 536.083L465.521 535.187L465.522 535.118H460.904V535.171ZM201.723 512.834C201.722 512.838 201.72 512.842 201.719 512.846L201.025 516.142V516.145L201.009 516.215V516.217L200.474 518.748L200.466 523.193V523.201L200.464 524.004V524.007L200.463 524.556V524.582L200.451 530.08L265.919 528.955L265.924 518.48C265.924 518.47 265.925 518.459 265.925 518.448V518.43L266.042 512.812H201.727L201.723 512.834ZM316.703 518.43C316.703 518.436 316.703 518.444 316.703 518.45L316.706 530.07L382.171 528.955L382.164 524.582V524.556L382.161 523.201V523.193L382.151 518.743L381.618 516.212L381.613 516.187C381.612 516.181 381.611 516.177 381.611 516.175L381.61 516.174L381.606 516.152C381.605 516.149 381.604 516.145 381.603 516.141L380.954 513.062L378.812 513.318C378.548 513.35 378.283 513.275 378.075 513.11C377.97 513.028 377.883 512.926 377.82 512.812H316.584L316.703 518.43ZM425.941 514.722L425.949 514.748L425.961 514.797L425.983 514.886L426.723 517.882C426.731 517.915 426.737 517.95 426.742 517.983C426.773 518.136 426.795 518.301 426.795 518.475L426.828 530.039L473.41 528.97L473.395 524.986L473.394 524.874V524.861L473.391 524.053L473.39 523.949V523.922L473.369 518.952L471.063 512.976L471.061 512.971L471.056 512.959C471.055 512.956 471.053 512.952 471.052 512.949L471.006 512.828L471 512.812H425.47L425.941 514.722ZM67.4917 519.03L67.4429 528.914H81.3237L81.3706 518.47L81.3843 518.227C81.4054 518.025 81.4525 517.83 81.519 517.644C81.529 517.609 81.5402 517.573 81.5542 517.539L83.2505 513.368L82.147 512.812H70.3384L67.4917 519.03ZM111.628 512.813L111.624 512.824L111.568 512.969C111.567 512.971 111.566 512.974 111.565 512.977L109.386 518.621L109.256 518.955V519.256L109.238 523.922V523.948L109.237 524.052L109.234 524.861V524.874L109.233 524.986L109.216 528.914H155.802L155.832 518.475C155.832 518.267 155.86 518.068 155.906 517.882L156.667 514.798C156.668 514.793 156.668 514.789 156.669 514.784L157.158 512.812H111.629L111.628 512.813ZM501.072 517.535L501.105 517.628C501.114 517.659 501.122 517.691 501.128 517.724L501.238 518.282L501.251 518.376C501.255 518.407 501.256 518.438 501.256 518.47L501.303 528.914H515.185L515.136 519.032L511.812 511.773L511.3 511.272H498.492L501.072 517.535ZM190.715 514.593C190.644 514.609 190.572 514.618 190.498 514.618L175.085 514.603C175.054 514.606 175.022 514.607 174.99 514.607L167.685 514.599L167.681 514.603L167.671 514.609L167.651 514.625L167.589 514.676L167.588 514.677L167.457 514.785L167.455 514.786L166.903 515.237L166.895 515.256C166.894 515.258 166.893 515.26 166.892 515.262L166.733 515.625C166.732 515.627 166.73 515.629 166.729 515.631L166.604 515.914L166.597 515.953C166.596 515.962 166.592 515.971 166.59 515.979L165.838 520.109L165.845 521.499H189.475L191.344 520.904L192.185 515.306C192.185 515.303 192.186 515.3 192.186 515.297L192.197 515.226C192.197 515.223 192.197 515.22 192.198 515.217L192.291 514.596L190.715 514.593ZM390.336 514.603L390.397 515.003L390.428 515.214L390.429 515.218C390.431 515.229 390.432 515.238 390.433 515.244V515.247L390.442 515.305L391.351 521.362C391.419 521.404 391.486 521.45 391.55 521.499H416.782L416.788 520.111L416.039 515.955C416.038 515.951 416.037 515.947 416.037 515.943L415.902 515.64C415.9 515.635 415.897 515.63 415.895 515.625L415.739 515.27L415.737 515.265L415.725 515.237L415.201 514.809C415.194 514.803 415.186 514.799 415.179 514.793L415.047 514.686C415.041 514.68 415.035 514.675 415.031 514.672C415.026 514.668 415.023 514.664 415.021 514.663L415.02 514.662L414.95 514.604C414.947 514.603 414.945 514.601 414.943 514.599L407.638 514.607C407.54 514.608 407.445 514.593 407.355 514.566L390.336 514.603ZM527.58 491.921C527.583 491.912 527.587 491.904 527.589 491.896V491.893C527.586 491.901 527.584 491.911 527.58 491.921ZM64.3638 488.494H518.265V484.037H64.3638V488.494ZM130.85 469.626V475.727H269.645L269.493 471.568V471.565L269.427 469.775C223.218 469.773 177.048 469.6 130.85 469.626ZM450.939 469.771C406.718 469.615 362.502 469.772 318.273 469.774L318.056 475.727H450.939V469.771ZM487.442 467.029C487.444 467.026 487.447 467.023 487.448 467.021L487.45 467.018C487.45 467.018 487.446 467.024 487.442 467.029ZM149.845 433.221L157.468 446.331H172.589L180.18 433.232L172.589 420.16L157.393 420.147L149.845 433.221ZM183.692 446.331H208.449L203.624 438.032H188.501L183.692 446.331ZM211.936 433.22L219.559 446.331H234.674L242.228 433.246L234.673 420.16L219.484 420.147L211.936 433.22ZM250.548 438.046L245.767 446.331H270.54L265.715 438.033L250.548 438.046ZM274.028 433.22L281.65 446.331H295.871L303.493 433.22L295.944 420.146H281.577L274.028 433.22ZM306.982 446.331H331.754L326.971 438.047L311.804 438.034L306.982 446.331ZM342.846 420.16L335.291 433.246L342.845 446.331H357.962L365.583 433.221L358.037 420.148L342.846 420.16ZM369.594 445.435C369.589 445.443 369.582 445.451 369.577 445.46L369.072 446.331H393.83L389.021 438.032H373.898L369.594 445.435ZM404.929 420.16L397.339 433.23L404.932 446.331H420.053L427.674 433.221L420.126 420.147L404.929 420.16ZM455.721 433.241L462.702 446.331H463.064L464.274 443.257L464.108 420.146H462.663L455.721 433.241ZM431.314 445.622L451.492 445.722C450.183 443.149 448.874 440.575 447.566 438.002H435.783L431.314 445.622ZM129.998 437.971L128.169 445.374L146.158 445.438L141.832 437.949L129.998 437.971ZM118.141 441.687L118.589 444.448L122.597 433.24L118.141 420.669V441.687ZM304.257 415.334L311.818 428.428L326.975 428.441L334.526 415.361L326.974 402.279H311.743L304.257 415.334ZM242.994 415.361L250.545 428.44L265.703 428.428L273.263 415.334L265.778 402.278H250.548L242.994 415.361ZM435.86 402.274L428.259 415.262V415.406L435.932 428.428L447.469 428.44L454.88 415.244L448.775 402.262L435.86 402.274ZM127.373 415.352L131.278 428.438L141.61 428.428L149.374 415.335L141.681 402.274L131.317 402.264L127.373 415.352ZM180.909 415.359L188.499 428.427H203.615L211.171 415.334L203.685 402.274L188.499 402.262L180.909 415.359ZM373.834 402.273L366.348 415.333L373.907 428.427H389.023L396.61 415.359L389.018 402.262L373.834 402.273ZM157.479 384.388L154.222 390.031C154.218 390.038 154.212 390.043 154.208 390.05L149.917 397.482L157.405 410.542L172.59 410.556L180.185 397.453L172.634 384.376L157.479 384.388ZM212.009 397.483L219.496 410.542L234.675 410.556L242.228 397.475L234.675 384.393H219.568L212.009 397.483ZM335.291 397.475L339.568 404.883L339.789 405.264C339.79 405.267 339.793 405.269 339.794 405.272L342.844 410.556L358.024 410.543L365.51 397.483L357.953 384.393H342.845L335.291 397.475ZM397.334 397.453L404.928 410.556L420.115 410.543L427.601 397.483L420.042 384.39L404.884 384.376L397.334 397.453ZM455.678 397.456L462.658 410.542H464.096L464.095 384.381L462.654 384.378L455.678 397.456ZM274.1 397.481L281.587 410.541H295.934L303.418 397.483L295.862 384.393H281.661L274.1 397.481ZM118.141 410.038L122.64 397.456L118.141 384.874V410.038ZM250.548 366.504L242.994 379.589L250.548 392.673H265.788L273.335 379.598L265.715 366.49L250.548 366.504ZM304.184 379.598L311.733 392.673H326.973L334.526 379.589L326.971 366.504L311.805 366.49L304.184 379.598ZM131.083 366.501L125.966 379.566L131.124 392.659L141.694 392.67L149.446 379.597L141.621 366.49L131.083 366.501ZM180.953 379.571L188.507 392.657L203.697 392.67L211.245 379.598L203.624 366.489H188.507L180.953 379.571ZM369.594 373.892C369.59 373.898 369.585 373.904 369.582 373.91L366.276 379.597L373.824 392.67H375.184C375.194 392.67 375.203 392.669 375.212 392.669L389.013 392.657L396.567 379.572L389.014 366.489H373.899L369.594 373.892ZM428.259 379.404V379.792L435.848 392.67L448.578 392.657L453.612 379.669L447.332 366.502L435.921 366.49L428.259 379.404ZM342.846 348.616L335.291 361.703L342.845 374.788H357.962L365.583 361.677L358.036 348.604L342.846 348.616ZM211.936 361.677L219.559 374.787H234.674L242.227 361.703L234.672 348.617L219.483 348.604L211.936 361.677ZM274.028 361.677L281.651 374.787H295.872L303.493 361.677L295.945 348.603H281.578L274.028 361.677ZM404.929 348.616L397.335 361.693L404.886 374.771L420.054 374.784L427.674 361.677L420.126 348.604L404.929 348.616ZM154.228 354.084C154.226 354.089 154.225 354.094 154.222 354.099L153.117 356.013L153.116 356.015L149.845 361.677L157.465 374.783L172.632 374.771L180.184 361.691L172.59 348.617L157.393 348.604L154.228 354.084ZM455.719 361.701L462.658 374.771L464.1 374.774V348.603H462.662L455.719 361.701ZM118.141 374.253L122.597 361.701L118.141 349.124V374.253ZM250.548 330.731L242.994 343.816L250.546 356.898L265.703 356.885L273.258 343.8L265.705 330.719L250.548 330.731ZM304.261 343.8L311.816 356.885L326.973 356.898L334.526 343.817L326.971 330.731L311.814 330.719L304.261 343.8ZM428.259 343.735V343.862L435.934 356.885L447.467 356.896L454.881 343.696L448.816 330.731L435.93 330.719L428.259 343.735ZM131.084 330.729L125.967 343.799L131.083 356.896L141.609 356.885L149.37 343.8L141.611 330.719L131.084 330.729ZM180.909 343.815L188.499 356.884H203.615L211.167 343.8L203.615 330.717H188.501L180.909 343.815ZM366.353 343.8L373.908 356.884H389.023L396.612 343.814L389.021 330.717H373.908L366.353 343.8ZM154.217 318.425C154.215 318.428 154.212 318.432 154.209 318.436L149.846 325.924L157.395 338.999L172.59 339.013L180.18 325.917L172.591 312.849H157.465L154.217 318.425ZM211.937 325.924L219.486 338.999L234.674 339.013L242.227 325.932L234.674 312.849H219.555L211.937 325.924ZM335.291 325.933L342.844 339.013L358.034 338.999L361.308 333.33L361.31 333.325L365.583 325.926L357.965 312.849H342.846L335.291 325.933ZM397.338 325.915L404.928 339.012L420.125 338.999L427.673 325.925L420.056 312.849H404.928L397.338 325.915ZM274.029 325.925L281.578 338.998H295.944L303.491 325.925L295.874 312.849H281.647L274.029 325.925ZM455.718 325.929L462.659 338.998H464.1L464.099 312.836L462.658 312.834L455.718 325.929ZM118.141 338.479L122.597 325.928L118.141 313.35V338.479ZM242.997 308.051L250.546 321.127L265.716 321.113L273.33 308.044L265.714 294.946H250.592L242.997 308.051ZM307.502 302.349C307.499 302.355 307.494 302.361 307.49 302.367L304.189 308.043L311.803 321.113L326.973 321.127L334.524 308.051L326.929 294.946H311.806L307.502 302.349ZM428.259 307.86V308.229L435.919 321.114L448.614 321.126L453.612 308.141L447.288 294.946H435.924L428.259 307.86ZM125.967 308.033L131.082 321.124L141.621 321.114L149.441 308.043L141.62 294.946H131.127L125.967 308.033ZM180.909 308.045L188.499 321.112H203.626L206.937 315.429L206.94 315.424L211.239 308.044L203.624 294.946H188.501L180.909 308.045ZM366.282 308.044L373.895 321.112H389.023L396.611 308.043L389.021 294.946H373.899L366.282 308.044ZM149.851 290.145L157.468 303.244H172.589L180.181 290.144L172.593 277.078H157.464L149.851 290.145ZM211.943 290.145L219.56 303.244H234.68L242.272 290.145L234.683 277.077H219.556L211.943 290.145ZM335.247 290.143L342.841 303.244H357.962L365.577 290.144L357.966 277.078H342.837L335.247 290.143ZM274.035 290.145L281.651 303.243H295.872L303.486 290.144L295.875 277.078H281.649L274.035 290.145ZM397.338 290.144L404.931 303.243H420.053L427.668 290.145L420.056 277.077H404.928L397.338 290.144ZM455.676 290.143L462.657 303.229L464.099 303.231L464.098 277.065L462.654 277.062L455.676 290.143ZM118.141 302.723L122.641 290.142L118.141 277.559V302.723ZM125.967 272.256L131.126 285.341H141.622L149.441 272.271L141.621 259.174H131.125L125.967 272.256ZM180.91 272.271L188.5 285.341H203.626L211.239 272.271L203.624 259.174H188.501L180.91 272.271ZM243 272.271L250.59 285.341H265.717L273.33 272.271L265.714 259.174H250.592L243 272.271ZM307.502 266.576C307.499 266.583 307.494 266.588 307.49 266.595L304.189 272.271L311.803 285.341H326.931L334.52 272.271L326.929 259.174H311.807L307.502 266.576ZM369.594 266.576C369.59 266.583 369.585 266.588 369.582 266.595L366.282 272.271L373.895 285.341H389.022L396.611 272.271L389.021 259.174H373.899L369.594 266.576ZM428.259 272.088V272.456L435.919 285.341H447.289L453.559 272.257L447.289 259.174H435.924L428.259 272.088ZM154.217 246.882C154.214 246.888 154.208 246.893 154.205 246.899L149.851 254.373L154.147 261.761L154.151 261.767L154.208 261.867C154.212 261.872 154.215 261.877 154.218 261.882L157.468 267.473H172.59L180.18 254.375L172.591 241.306H157.465L154.217 246.882ZM219.556 241.303L215.247 248.704C215.243 248.711 215.237 248.718 215.233 248.725L211.943 254.373L219.56 267.473H234.681L242.276 254.366L234.725 241.289L219.556 241.303ZM274.035 254.374L281.651 267.473H295.872L303.487 254.373L295.875 241.306H281.649L274.035 254.374ZM335.244 254.365L342.84 267.473H357.962L365.578 254.373L357.963 241.303L342.794 241.289L335.244 254.365ZM397.338 254.373L404.931 267.473H420.053L427.668 254.373L420.056 241.306H404.928L397.338 254.373ZM455.678 254.377L462.658 267.458L464.1 267.461L464.098 241.306H462.7L455.678 254.377ZM118.141 266.951L122.639 254.375L118.141 241.916V266.951ZM125.921 236.502L131.116 249.569H141.622L149.444 236.492L141.69 223.417L131.113 223.406L125.921 236.502ZM180.909 236.501L188.499 249.569H203.626L211.244 236.49L203.695 223.417L188.499 223.404L180.909 236.501ZM243.043 236.484L250.598 249.569H265.717L273.333 236.491L265.786 223.417L250.596 223.404L243.043 236.484ZM311.734 223.415L304.185 236.491L311.805 249.569H326.922L334.475 236.485L326.922 223.404L311.734 223.415ZM373.826 223.416L366.277 236.492L373.896 249.569H389.023L396.611 236.501L389.021 223.404L373.826 223.416ZM435.851 223.417L428.259 236.301V236.684L435.92 249.569H447.298L453.605 236.503L447.298 223.405L435.851 223.417ZM149.917 218.606L154.199 226.022L154.2 226.024L154.221 226.062L157.478 231.7H172.59L180.181 218.602L172.59 205.53L157.405 205.518L149.917 218.606ZM274.1 218.605L281.66 231.7H295.862L303.419 218.605L295.931 205.517H281.59L274.1 218.605ZM404.928 205.53L397.338 218.601L404.93 231.7H420.044L427.603 218.605L420.114 205.518L404.928 205.53ZM455.678 218.595L462.701 231.7H464.095L464.098 205.517H462.658L455.678 218.595ZM212.007 218.605L219.567 231.697L234.723 231.684L242.279 218.598L234.726 205.517H219.499L212.007 218.605ZM335.24 218.599L342.795 231.684L357.953 231.697L365.512 218.605L358.023 205.517H342.795L335.24 218.599ZM118.141 231.087L122.64 218.597L118.141 206.021V231.087ZM131.083 187.643L125.968 200.709L131.125 213.801L141.682 213.812L149.375 200.724L141.613 187.632L131.083 187.643ZM180.909 200.729L188.5 213.799L203.685 213.812L211.173 200.724L203.615 187.631H188.501L180.909 200.729ZM250.554 187.646L243.041 200.709L250.598 213.799L265.775 213.812L273.264 200.724L265.705 187.632L250.554 187.646ZM304.255 200.724L311.744 213.812L326.921 213.799L334.479 200.709L326.965 187.646L311.814 187.632L304.255 200.724ZM366.346 200.724L373.834 213.812L389.02 213.799L396.611 200.728L389.02 187.631H373.907L366.346 200.724ZM428.259 200.649V200.799L435.859 213.812L447.423 213.8L454.821 200.707L447.469 187.644L435.929 187.632L428.259 200.649ZM242.998 164.939L250.569 178.009L265.77 178.022L273.36 164.927L268.223 156.091L268.221 156.087L265.772 151.873L250.569 151.859L242.998 164.939ZM311.748 151.873L304.16 164.927L311.749 178.021L326.95 178.009L334.523 164.939L326.952 151.859L311.748 151.873ZM125.988 165.029L131.098 178.008H141.719L149.475 164.924L141.718 151.858H132.418L125.988 165.029ZM180.928 164.924L188.483 178.008H203.708L211.18 164.925L203.709 151.858H188.481L180.928 164.924ZM366.339 164.924L373.812 178.008H389.038L396.59 164.924L389.04 151.858H373.811L366.339 164.924ZM428.259 164.68V165.171L435.824 178.008H447.314L453.563 164.924L447.315 151.858H435.822L428.259 164.68ZM335.266 147.052L342.838 160.137L358.02 160.123L365.486 147.067L357.926 133.973H342.819L335.266 147.052ZM212.035 147.066L219.5 160.122L234.681 160.136L242.253 147.052L234.703 133.973H219.595L212.035 147.066ZM154.228 139.644C154.226 139.648 154.225 139.654 154.222 139.658L149.95 147.054L157.503 160.122H172.613L180.165 147.054L172.612 133.973H157.504L154.228 139.644ZM397.357 147.054L404.911 160.122H420.018L427.57 147.054L420.017 133.973H404.911L397.357 147.054ZM274.089 147.069L281.676 160.121H295.845L303.431 147.069L295.841 133.973H281.681L274.089 147.069ZM455.699 147.056L462.658 160.121H464.107L464.252 137.526H460.783L455.699 147.056ZM118.141 159.56L122.619 147.054L119.211 137.526H118.141V159.56ZM133.757 134.905C133.701 134.976 133.641 135.045 133.577 135.11L131.895 136.793C131.485 137.203 130.947 137.457 130.374 137.514L130.126 137.526H128.836L130.019 142.326L141.929 142.338L146.218 134.858L133.757 134.905ZM431.256 134.677L435.685 142.285L447.545 142.295L450.859 135.773L450.196 135.105L450.195 135.104C450.183 135.093 450.173 135.082 450.165 135.072C450.156 135.063 450.147 135.055 450.141 135.049C450.138 135.045 450.136 135.042 450.133 135.039L450.004 134.89C449.992 134.874 449.982 134.86 449.974 134.85L449.958 134.827C449.934 134.794 449.898 134.745 449.863 134.689C449.846 134.664 449.834 134.642 449.827 134.63C449.823 134.624 449.819 134.618 449.818 134.615C449.817 134.613 449.816 134.611 449.816 134.611L449.815 134.61C449.812 134.606 449.809 134.598 449.803 134.589L431.256 134.677ZM250.575 142.255L265.77 142.269L270.579 133.973H245.793L250.575 142.255ZM311.75 142.269L326.943 142.256L331.728 133.973H306.943L311.75 142.269ZM188.484 142.254H203.723L208.504 133.973H183.703L188.484 142.254ZM373.798 142.254H389.039L393.82 133.973H369.018L373.798 142.254ZM450.13 135.034L450.129 135.032L450.125 135.026C450.125 135.026 450.128 135.031 450.13 135.034ZM89.9175 112.117L89.9204 112.115L89.9233 112.112C89.9217 112.114 89.9191 112.116 89.9175 112.117ZM317.788 107.01H449.469V103.196H317.648L317.788 107.01ZM134.396 107.008L269.914 107.009L270.053 103.196H134.396V107.008ZM64.3638 95.3193H125.049C125.096 95.2865 125.145 95.2562 125.197 95.2314C125.436 95.1176 125.712 95.1037 125.961 95.1924L126.319 95.3193H518.265V89.9951H64.3638V95.3193ZM136.165 82.1182H450.822V49.0273H136.165V82.1182ZM154.222 190.414C154.226 190.421 154.229 190.429 154.233 190.437L157.395 195.913L172.591 195.926L180.176 182.838H180.149L180.165 182.811L172.612 169.727H157.504L149.944 182.821L149.954 182.838H149.848L154.222 190.414ZM219.486 195.912H234.719L242.235 182.842L242.233 182.838H242.235L242.25 182.811L234.678 169.741L219.498 169.728L212.027 182.809L212.043 182.838H211.937L219.486 195.912ZM281.578 195.912H295.945L303.492 182.838H303.437L303.438 182.837L295.841 169.727H281.682L274.082 182.836L274.083 182.838H274.029L281.578 195.912ZM335.285 182.842L342.8 195.912H358.036L365.583 182.84L365.582 182.838H365.475L365.493 182.808L358.021 169.728L342.841 169.741L335.269 182.811L335.285 182.838H335.287L335.285 182.842ZM404.928 195.926L420.125 195.913L427.672 182.839L427.671 182.838H427.567L427.577 182.821L420.017 169.727H404.911L397.356 182.811L397.372 182.838H397.343L404.928 195.926ZM455.718 182.843L462.659 195.912H463.947C463.848 191.543 463.799 187.191 463.798 182.838H464.097V169.727H462.658L455.698 182.808L455.714 182.838H455.721L455.718 182.843Z" fill="black"/>
</svg>
